# xmcd
#
# Track frame offsets:
#	150
#	20610
#	49938
#	63129
#	79868
#	99508
#
# Disc length: 1597 seconds
#
# Revision: 1
# Processed by: cddbd v1.5.1PL0 Copyright (c) Steve Scherf et al.
# Submitted via: CDex 1.50Beta5
#
DISCID=44063b06
DTITLE=ティセ・ディアレック - ほほえみのとなりへ...。
DYEAR=1900
DGENRE=Soundtrack
TTITLE0=ほほえみのとなりへ...。
TTITLE1=ティセの文通
TTITLE2=Funky Guys,Skip It
TTITLE3=Funky Guys,Skip It
TTITLE4=麻績村まゆ子はティセっぽい?
TTITLE5=ほほえみのとなりへ...。
EXTD=Perpetual Blue Maxi Single Collection Vol.3
EXTT0=
EXTT1=
EXTT2=
EXTT3=
EXTT4=
EXTT5=
PLAYORDER=
